<?xml version="1.0" encoding="UTF-8"?>
<!DOCTYPE svg PUBLIC "-//W3C//DTD SVG 1.1//EN" "http://www.w3.org/Graphics/SVG/1.1/DTD/svg11.dtd">
<!-- Creator: CorelDRAW -->
<svg xmlns="http://www.w3.org/2000/svg" xml:space="preserve" width="75.1026mm" height="26.4137mm" version="1.1" style="shape-rendering:geometricPrecision; text-rendering:geometricPrecision; image-rendering:optimizeQuality; fill-rule:evenodd; clip-rule:evenodd"
viewBox="0 0 3803.97 1337.86"
 xmlns:xlink="http://www.w3.org/1999/xlink"
 xmlns:xodm="http://www.corel.com/coreldraw/odm/2003">
 <defs>
  <style type="text/css">
   <![CDATA[
    .fil0 {fill:#FEFEFE}
    .fil1 {fill:#FEFEFE;fill-rule:nonzero}
   ]]>
  </style>
 </defs>
 <g id="Layer_x0020_1">
  <metadata id="CorelCorpID_0Corel-Layer"/>
  <g id="_1685570817712">
   <g>
    <path class="fil0" d="M564.23 1279.67c30.01,-13.59 71.23,-35.05 101.55,-46.25 35.73,-13.2 121.37,-47.69 142.78,-56.54 164.24,-67.8 435.26,-189.24 565.82,-296.02 14.91,-12.19 44.31,-34.17 47.6,-59.61 8.74,-67.52 -354.16,-119.67 -407.57,-126.35 -323.43,-40.44 -597.68,-27.53 -209.74,-268.06 133.97,-83.06 290.73,-147.74 440.17,-207.28 53.9,-21.48 110.84,-40.22 163.24,-57.98 16.25,-5.51 54.62,-13.1 71.36,-18.9 -50.74,0.61 -338.75,87.08 -395.16,105.14 -100.28,32.11 -198.87,69.23 -291.34,107.36 -84.18,34.72 -561.87,241.25 -406.91,333.33 106.93,63.55 503.24,62.66 627.84,174.09 144.79,129.49 -351.6,362.56 -449.63,417.05z"/>
    <path class="fil0" d="M648.07 792.27c-101.77,-13.16 -416.41,-46.37 -461.06,-110.7 -53.59,-77.2 204,-201.79 266.69,-232.62 181.18,-89.09 675.55,-244.59 884.97,-285.75 -41.96,-3.61 -539.54,122.03 -601.87,140.1 -159.6,46.28 -302.57,96.03 -446.55,158.25 -72.12,31.16 -415.87,195.09 -241.45,272.56 101.05,44.88 469.24,63.93 599.27,58.15z"/>
    <path class="fil0" d="M1011.3 1126.37c3.03,3.09 21.8,0.99 31.86,-0.67 109.3,-18.04 343.9,-122.88 373.76,-245.25 -55.27,45.51 -116.13,90.42 -180.09,128.74 -35.48,21.25 -187.45,107.83 -225.53,117.18z"/>
   </g>
   <path class="fil1" d="M1768.53 388.16l219.05 0 0 -116.88 -295.5 0c-63.95,0 -84.54,30.14 -84.54,90.42l0 424.14 139.67 0 0 -180.1 208.77 0 0 -116.88 -208.77 0 0 -78.65c0,-16.17 3.68,-22.05 21.32,-22.05zm440.31 280.8c-17.64,0 -21.32,-5.14 -21.32,-22.05l0 -375.63 -139.67 0 0 424.87c0,59.54 20.58,89.68 84.54,89.68l267.57 0 0 -116.88 -191.12 0zm476.34 -402.09l-10.29 0c-200.68,0 -238.9,116.14 -238.9,261.69 0,145.54 38.23,261.69 238.9,261.69l10.29 0c200.68,0 238.9,-116.15 238.9,-261.69 0,-145.55 -38.23,-261.69 -238.9,-261.69zm6.61 406.5l-23.52 0c-46.31,0 -92.62,-24.26 -92.62,-144.81 0,-120.55 46.31,-144.81 92.62,-144.81l23.52 0c47.04,0 92.62,24.26 92.62,144.81 0,120.55 -45.58,144.81 -92.62,144.81zm958.55 -402.09l-120.55 297.71c-26.46,64.69 -47.04,86.74 -78.65,90.42l0 -388.12 -121.29 0 -121.29 297.71c-25.73,64.69 -42.64,86.74 -73.51,90.42l0 -388.12 -138.19 0 0 514.56 138.19 0c102.91,0 145.55,-44.84 177.89,-119.08l0 119.08 137.46 0c119.82,0 150.69,-26.46 197.74,-139.67l155.84 -374.89 -153.63 0z"/>
   <path class="fil1" d="M2305.49 989.11l14.78 -61.4 -33.16 -39.88 -183.28 0 33.61 39.88 113.38 0 -7.17 29.13 -49.74 24.2 8.07 -32.72 -69.91 0 -34.95 141.16 69.46 0 15.69 -61.84 43.02 61.84 82 0 -52.43 -76.63 50.64 -23.75zm192.24 -101.73l-116.51 0 -33.61 40.33 -27.34 108.9 90.08 -81.11 6.72 -27.79 44.36 0 -1.79 10.31 -166.71 151.47 83.8 0 5.82 -22.85 58.7 -55.57 0 1.34 -19.71 76.63 69.46 0.45 40.33 -161.78 -33.61 -40.33zm62.29 40.33l161.77 0 -32.71 -40.33 -159.98 0 30.92 40.33zm64.53 21.07l-69.91 0 -25.09 100.38 33.16 39.88 96.79 0.45 33.61 -40.33 -93.66 0 25.09 -100.38zm102.62 100.38l-33.16 40.33 92.77 0 35.4 -141.16 -69.91 0 -25.1 100.83zm40.33 -161.77l-9.86 40.33 69.46 0 10.31 -40.33 -69.91 0zm165.81 0l-69.91 0 -50.19 201.65 69.46 0.45 23.75 -93.66 40.33 93.66 64.53 0 3.14 -12.55 -43.02 -101.28 -38.09 -88.28zm63.19 0l-14.78 59.15 40.78 96.8 38.99 -155.95 -64.98 0zm191.36 121.89l-9.86 39.88 -113.38 0 33.16 39.88 139.82 0.45 30.48 -120.99 -113.38 0 33.16 40.78zm-117.86 18.82l69.46 0 25.1 -100.38 112.93 0 -32.27 -40.33 -181.04 0 30.92 40.33 -25.09 100.38z"/>
   <path class="fil1" d="M1664.66 124.14c-5.44,0 -6.58,-1.59 -6.58,-6.81l0 -115.97 -43.12 0 0 131.18c0,18.39 6.36,27.69 26.1,27.69l82.61 0 0 -36.09 -59.01 0zm118.02 36.09l0 -158.87 -43.12 0 0 158.87 43.12 0zm93.05 -92.37l0 34.73 34.73 0c0,20.88 -15.43,22.92 -26.78,22.92l-7.26 0c-14.3,0 -28.6,-7.49 -28.6,-44.71 0,-37.22 14.3,-44.71 28.6,-44.71l7.26 0c10.22,0 22.47,1.36 25.19,17.25l40.85 0c-4.32,-34.27 -19.06,-53.33 -69.45,-53.33l-1.81 0c-61.96,0 -73.76,35.86 -73.76,80.8 0,44.94 11.8,80.8 73.76,80.8l3.18 0c54.7,0 70.36,-26.56 70.36,-68.32l0 -25.42 -76.26 0zm189.96 -66.5c-36.77,0 -46.53,8.17 -61.05,43.12l-47.89 115.75 45.85 0 10.67 -26.33 52.43 0 0 26.33 42.67 0 0 -158.87 -42.67 0zm0 96.46l-37.68 0 12.03 -29.51c8.17,-19.97 15.66,-29.28 25.65,-30.64l0 60.15z"/>
   <path class="fil1" d="M1642.65 1336.22l0 -104.54 -28.37 0 0 104.54 28.37 0zm88.55 -31.06c13.3,-6.27 17.77,-22.25 17.77,-35.09 0,-16.43 -7.17,-38.23 -30.47,-38.38l-58.09 0 0 104.54 28.37 0 0 -28.22 12.69 0 4.78 7.76c8.96,14.49 15.98,22.1 32.41,22.1 4.33,0 9.26,-0.6 15.08,-1.64l-22.55 -31.06zm-23.15 -21.06l-19.26 0 0 -28.67 19.26 0c7.17,0 11.35,4.48 11.35,14.78 0,10.3 -4.63,13.89 -11.35,13.89zm121.11 -52.42c-24.2,0 -30.61,5.38 -40.17,28.37l-31.51 76.16 30.17 0 7.02 -17.32 34.5 0 0 17.32 28.08 0 0 -104.54 -28.08 0zm0 63.47l-24.79 0 7.92 -19.41c5.38,-13.14 10.3,-19.26 16.88,-20.16l0 39.57zm94.68 18.22l-4.78 0c-9.41,0 -18.82,-4.93 -18.82,-29.42 0,-24.49 9.41,-29.42 18.82,-29.42l4.78 0c7.91,0 15.68,2.69 18.07,17.47l27.03 0c-1.94,-22.7 -10.45,-41.22 -46.45,-41.22l-2.09 0c-40.77,0 -48.54,23.6 -48.54,53.17 0,29.56 7.77,53.16 48.54,53.16l2.09 0c35.99,0 44.51,-18.52 46.45,-41.22l-27.03 0c-2.39,14.78 -10.16,17.47 -18.07,17.47zm87.36 22.85l0 -104.54 -28.37 0 0 104.54 28.37 0zm84.67 -104.54l0 60.04 -22.25 -44.5c-5.53,-11.2 -10.31,-15.53 -25.09,-15.53l-19.56 0 0 104.54 28.37 0 0 -58.84 21.95 43.76c5.98,12.1 11.8,15.08 24.94,15.08l20.01 0 0 -104.54 -28.37 0zm89.75 43.76l0 22.85 22.85 0c0,13.74 -10.16,15.08 -17.62,15.08l-4.78 0c-9.41,0 -18.82,-4.93 -18.82,-29.42 0,-24.49 9.41,-29.42 18.82,-29.42l4.78 0c6.72,0 14.78,0.9 16.58,11.35l26.88 0c-2.84,-22.55 -12.55,-35.1 -45.7,-35.1l-1.2 0c-40.77,0 -48.54,23.6 -48.54,53.17 0,29.56 7.77,53.16 48.54,53.16l2.09 0c35.99,0 46.3,-17.47 46.3,-44.95l0 -16.72 -50.18 0zm142.91 0l0 22.85 22.85 0c0,13.74 -10.16,15.08 -17.62,15.08l-4.78 0c-9.41,0 -18.82,-4.93 -18.82,-29.42 0,-24.49 9.41,-29.42 18.82,-29.42l4.78 0c6.72,0 14.78,0.9 16.58,11.35l26.88 0c-2.84,-22.55 -12.55,-35.1 -45.7,-35.1l-1.2 0c-40.77,0 -48.54,23.6 -48.54,53.17 0,29.56 7.77,53.16 48.54,53.16l2.09 0c35.99,0 46.3,-17.47 46.3,-44.95l0 -16.72 -50.18 0zm57.65 -43.76l0 23.74 29.27 0 0 80.79 28.37 0 0 -80.79 29.27 0 0 -23.74 -86.92 0zm170.69 50.18c5.67,-4.48 8.81,-11.2 8.81,-20.91 0,-22.25 -13.14,-30.31 -39.87,-30.31 -31.81,0 -43.9,10.75 -41.66,37.78l25.09 0c-1.64,-11.35 3.29,-13.74 14.78,-13.74 10.45,0 15.68,1.64 15.68,9.11 0,7.92 -2.69,11.05 -17.92,11.05l0 18.67c22.55,0 22.4,3.58 22.4,10.45 0,6.42 -6.57,9.11 -19.27,9.11 -11.05,0 -18.22,-2.24 -17.47,-11.8l-24.94 0c-2.09,28.08 16.72,35.84 43.45,35.84 33.16,0 43.16,-11.2 43.16,-31.21 0,-11.65 -4.78,-19.41 -12.24,-24.04zm112.3 31.51l-4.78 0c-9.41,0 -18.82,-4.93 -18.82,-29.42 0,-24.49 9.41,-29.42 18.82,-29.42l4.78 0c7.91,0 15.68,2.69 18.07,17.47l27.03 0c-1.94,-22.7 -10.45,-41.22 -46.45,-41.22l-2.09 0c-40.77,0 -48.54,23.6 -48.54,53.17 0,29.56 7.77,53.16 48.54,53.16l2.09 0c35.99,0 44.51,-18.52 46.45,-41.22l-27.03 0c-2.39,14.78 -10.16,17.47 -18.07,17.47zm121.71 -81.69l0 44.2 -34.35 0 0 -44.2 -28.37 0 0 104.54 28.37 0 0 -36.59 34.35 0 0 36.59 28.37 0 0 -104.54 -28.37 0zm109.31 0c-24.2,0 -30.61,5.38 -40.17,28.37l-31.51 76.16 30.17 0 7.02 -17.32 34.5 0 0 17.32 28.08 0 0 -104.54 -28.08 0zm0 63.47l-24.79 0 7.92 -19.41c5.38,-13.14 10.3,-19.26 16.88,-20.16l0 39.57zm133.95 -63.47c-17.62,0 -22.25,7.02 -26.43,20.46l-9.11 29.12 -9.11 -29.12c-4.18,-13.44 -8.66,-20.46 -26.43,-20.46l-16.88 0 0 104.54 28.37 0 0 -53.31 6.57 22.25c4.18,13.89 5.68,17.47 16.58,17.47l1.94 0c10.75,0 12.39,-3.59 16.58,-17.47l6.57 -22.25 0 53.31 28.37 0 0 -104.54 -17.02 0zm123.5 38.38c0,-16.43 -7.17,-38.23 -30.47,-38.38l-58.09 0 0 104.54 28.37 0 0 -28.22 29.57 0c23.29,-0.15 30.61,-21.66 30.61,-37.93zm-40.92 14.04l-19.26 0 0 -28.67 19.26 0c7.17,0 11.35,4.48 11.35,14.78 0,10.3 -4.63,13.89 -11.35,13.89zm82.14 52.12l0 -104.54 -28.37 0 0 104.54 28.37 0zm65.11 -105.43l-2.09 0c-40.77,0 -48.54,23.6 -48.54,53.17 0,29.56 7.77,53.16 48.54,53.16l2.09 0c40.77,0 48.54,-23.6 48.54,-53.16 0,-29.57 -7.76,-53.17 -48.54,-53.17zm1.35 82.59l-4.78 0c-9.41,0 -18.82,-4.93 -18.82,-29.42 0,-24.49 9.41,-29.42 18.82,-29.42l4.78 0c9.56,0 18.82,4.93 18.82,29.42 0,24.49 -9.26,29.42 -18.82,29.42zm128.88 -81.69l0 60.04 -22.25 -44.5c-5.53,-11.2 -10.31,-15.53 -25.09,-15.53l-19.56 0 0 104.54 28.37 0 0 -58.84 21.95 43.76c5.98,12.1 11.8,15.08 24.94,15.08l20.01 0 0 -104.54 -28.37 0zm94.23 41.82c-13.74,-0.75 -24.34,-1.05 -24.34,-9.71 0,-6.12 3.58,-10.9 15.68,-10.9 11.5,0 16.73,4.93 16.73,15.68l24.94 0c-0.74,-26.58 -15.08,-37.79 -41.66,-37.79 -26.58,0 -41.66,10.45 -41.66,35.84 0,22.26 16.73,27.03 35.1,28.37 13.74,1.05 25.84,0.45 25.84,9.11 0,6.27 -4.78,10 -17.47,10 -10.9,0 -19.26,-4.03 -19.26,-12.84l-24.94 0c0.9,29.87 16.72,35.84 43.46,35.84 33.15,0 43.16,-14.93 43.16,-35.84 0,-19.71 -13,-26.28 -35.55,-27.78zm112.61 -41.82l0 44.2 -34.35 0 0 -44.2 -28.37 0 0 104.54 28.37 0 0 -36.59 34.35 0 0 36.59 28.37 0 0 -104.54 -28.37 0zm74.37 104.54l0 -104.54 -28.37 0 0 104.54 28.37 0zm106.33 -66.15c0,-16.43 -7.17,-38.23 -30.47,-38.38l-58.09 0 0 104.54 28.37 0 0 -28.22 29.57 0c23.29,-0.15 30.61,-21.66 30.61,-37.93zm-40.92 14.04l-19.26 0 0 -28.67 19.26 0c7.17,0 11.35,4.48 11.35,14.78 0,10.3 -4.63,13.89 -11.35,13.89z"/>
   <polygon class="fil0" points="3324.19,1047.91 3778.65,1047.91 3778.65,1089.33 3324.19,1089.33 "/>
   <polygon class="fil0" points="1608.54,1047.91 2063.01,1047.91 2063.01,1089.33 1608.54,1089.33 "/>
  </g>
 </g>
</svg>
