<?xml version="1.0" encoding="utf-8"?>
<svg viewBox="430.191 103.098 112.737 29.783" xmlns="http://www.w3.org/2000/svg">
  <defs>
    <clipPath id="clippath">
      <path class="cls-10" d="m215.55,132.63c-.23.23-.33.56-.26.88l.63,3.19c.15.72-.5,1.34-1.2,1.17l-2.54-.59c-.66-.15-1.27.37-1.22,1.04l.24,3.43c.06.68-.59,1.21-1.25,1.03l-2.84-.77c-.66-.18-1.31.36-1.25,1.04l.26,3.32c.05.69-.6,1.23-1.27,1.03l-2.73-.78c-.72-.21-1.4.42-1.25,1.16l.45,2.21c.15.67-.42,1.27-1.09,1.19l-1.96-.24c-.3-.04-.61.06-.82.28l-4.68,4.68c-.39.39-1.02.39-1.41,0l-2.18-2.18c-.07-.04-.13-.09-.19-.15l-18.72-18.72-.93-.93-1.74-1.74-.47-.47c-.39-.39-.39-1.02,0-1.41l4.68-4.68c.21-.22.32-.52.28-.83l-.25-1.95c-.08-.68.53-1.24,1.2-1.1l2.21.45c.73.16,1.36-.53,1.16-1.25l-.79-2.72c-.19-.67.34-1.33,1.04-1.28l3.31.27c.69.05,1.22-.59,1.04-1.26l-.77-2.83c-.17-.67.35-1.31,1.04-1.26l3.42.25c.67.05,1.2-.57,1.05-1.22l-.6-2.55c-.16-.7.46-1.34,1.17-1.2l3.19.64c.32.06.65-.03.89-.26l1.05-1.02c.3-.29.74-.37,1.11-.2,1.07.5,3.37,1.67,5.75,3.59l.66.65,8.99,5.86,2.74,5.67,1.06,1.04c.19.19.38.39.55.59,2.44,2.73,3.89,5.54,4.45,6.77.17.37.09.81-.19,1.1l-1.02,1.06Z"/>
    </clipPath>
    <style>
      .cls-1 {
        fill: #f5d60a;
      }

      .cls-2 {
        fill: #dca63a;
      }

      .cls-3 {
        fill: #fccb7c;
      }

      .cls-4 {
        fill: #04b794;
      }

      .cls-5 {
        opacity: .3;
      }

      .cls-5, .cls-6, .cls-7 {
        mix-blend-mode: multiply;
      }

      .cls-5, .cls-8 {
        fill: #3c5077;
      }

      .cls-9 {
        isolation: isolate;
      }

      .cls-9, .cls-10, .cls-11, .cls-7 {
        fill: none;
      }

      .cls-6 {
        fill: #000200;
      }

      .cls-6, .cls-7 {
        opacity: .18;
      }

      .cls-11 {
        clip-path: url(#clippath);
      }

      .cls-7 {
        stroke: #3c5077;
        stroke-miterlimit: 10;
        stroke-width: 3px;
      }
    </style>
  </defs>
  <g class="cls-9" style="" transform="matrix(0.113603, 0, 0, 0.113603, 430.190674, 103.095787)">
    <g id="Layer_2" data-name="Layer 2">
      <g id="Layer_2-2" data-name="Layer 2">
        <g>
          <g>
            <path class="cls-6" d="m198.97,110.54l-22.8,24.44-7.91-5.81,3.55-3.55c.21-.22.32-.52.28-.83l-.25-1.95c-.08-.68.53-1.24,1.2-1.1l2.21.45c.73.16,1.36-.53,1.16-1.25l-.79-2.72c-.19-.67.34-1.33,1.04-1.28l3.31.27c.69.05,1.22-.59,1.04-1.26l-.77-2.83c-.17-.67.35-1.31,1.04-1.26l3.42.25c.67.05,1.2-.57,1.05-1.22l-.6-2.55c-.16-.7.46-1.34,1.17-1.2l3.19.64c.32.06.65-.03.89-.26l1.05-1.02c.3-.29.74-.37,1.11-.2,1.07.5,3.37,1.67,5.75,3.59l.66.65Z"/>
            <path class="cls-3" d="m216.76,130.47c.17.37.09.81-.19,1.1l-1.02,1.06c-.23.23-.33.56-.26.88l.63,3.19c.15.72-.5,1.34-1.2,1.17l-2.54-.59c-.66-.15-1.27.37-1.22,1.04l.24,3.43c.06.68-.59,1.21-1.25,1.03l-2.84-.77c-.66-.18-1.31.36-1.25,1.04l.26,3.32c.05.69-.6,1.23-1.27,1.03l-2.73-.78c-.72-.21-1.4.42-1.25,1.16l.45,2.21c.15.67-.42,1.27-1.09,1.19l-1.96-.24c-.3-.04-.61.06-.82.28l-4.68,4.68c-.39.39-1.02.39-1.41,0l-2.18-2.18c-.07-.04-.13-.09-.19-.15l-18.72-18.72-.93-.93-1.74-1.74-.47-.47c-.39-.39-.39-1.02,0-1.41l4.68-4.68c.21-.22.32-.52.28-.83l-.25-1.95c-.08-.68.53-1.24,1.2-1.1l2.21.45c.73.16,1.36-.53,1.16-1.25l-.79-2.72c-.19-.67.34-1.33,1.04-1.28l3.31.27c.69.05,1.22-.59,1.04-1.26l-.77-2.83c-.17-.67.35-1.31,1.04-1.26l3.42.25c.67.05,1.2-.57,1.05-1.22l-.6-2.55c-.16-.7.46-1.34,1.17-1.2l3.19.64c.32.06.65-.03.89-.26l1.05-1.02c.3-.29.74-.37,1.11-.2,1.07.5,17.22,9.17,24.2,24.17Z"/>
            <path class="cls-2" d="m195.27,161.52l-15.71,15.71c-.43.43-.99.72-1.59.84l-31.92,6c-.97.18-1.92.13-2.79-.12-1.04-.28-1.97-.83-2.72-1.56-.8-.79-1.39-1.8-1.67-2.92-.22-.82-.26-1.7-.1-2.6l5.52-31.11c.11-.61.4-1.18.84-1.62l16.3-16.3c.97-.97,2.47-1.17,3.66-.49l3.15,1.81,4.57,2.62c.23.13.45.3.64.49l2.7,2.7,14.17,14.17c.17.17.32.36.45.57l3.09,5.07,1.84,3.01c.73,1.2.55,2.74-.45,3.73Z"/>
            <path class="cls-5" d="m173.18,131.99l-1.54,1.51-1.37,1.35-7.55,7.44c-6.12,6.02-10.97,13.2-14.27,21.13l-7.13,17.13-.77,1.84c-.8-.79-1.39-1.8-1.67-2.92-.22-.82-.26-1.7-.1-2.6l5.51-31.05c.12-.65.43-1.24.89-1.71l16.27-16.27c.96-.96,2.45-1.16,3.63-.48l3.17,1.82,4.92,2.82Z"/>
          </g>
          <g class="cls-11">
            <path class="cls-7" d="m182.42,108.35s24.69,11.05,37.16,29.78"/>
            <path class="cls-7" d="m177.32,113.6s24.69,11.05,37.16,29.78"/>
            <path class="cls-7" d="m173.09,119.78s24.69,11.05,37.16,29.78"/>
            <path class="cls-7" d="m167.82,124.27s24.69,11.05,37.16,29.78"/>
          </g>
          <g>
            <g>
              <path class="cls-1" d="m187.58,92.01c-.57-.2-1.13-.42-1.68-.68.56.22,1.12.44,1.68.68Z"/>
              <path class="cls-1" d="m202.49,58.42c-1.31-.57-2.63-1.11-3.96-1.62,1.4.39,2.72.93,3.96,1.62Z"/>
              <path class="cls-8" d="m236.23,204.98c0,4.78-1.82,9.15-4.8,12.43-.57.56-1.14,1.13-1.73,1.67-9.6,9.05-21.1,16.22-34.1,20.68-23.55,8.08-50.28,6.6-72.67-4.29-23.36-11.36-40.51-31.49-57.66-50.35-18.82-20.7-39.5-39.72-59.27-59.52-9.15-9.16-7.63-23.32,3.18-29.83,7.19-4.33,16.35-3.31,22.37,2.67,11.27,11.17,22.45,22.43,33.69,33.62.76.76,1.44,2.37,2.49,1.91,1.05-.46.27-2.05.27-3.13.04-37.51.03-75.02.09-112.52,0-6.21,2.91-11.14,7.86-14.69,6.04-4.34,12.6-4.72,19.21-1.42,6.76,3.37,9.97,9.13,10.15,16.56.14,5.77.03,11.54.03,17.31,0,10.97,0,21.95,0,32.93,0,.46-.19,1.06.23,1.35.02.02.04.03.06.04.55.3.86-.33,1.25-.6,2.06-1.43,4.07-2.93,6.2-4.26,16.31-10.26,34.08-15.3,53.37-15,11.03.18,21.87,2.37,32.06,6.27,1.33.51,2.66,1.05,3.96,1.62,5.69,3.14,9.55,9.2,9.55,16.15,0,10.18-8.26,18.44-18.44,18.44-2.1,0-4.13-.35-6.01-1-.56-.24-1.12-.46-1.68-.68-21.04-8.03-45.37-3.53-62.67,13.48-24.61,24.19-23.24,61.69-.67,84.59,22.85,22.59,58.28,23.84,82.07,2.52,0,0,.02-.02.03-.03.39-.34.77-.69,1.15-1.05,3.22-2.72,7.38-4.36,11.93-4.36,10.22,0,18.5,8.28,18.5,18.5Z"/>
              <path class="cls-8" d="m204.66,191.9c.37-.37.75-.72,1.15-1.05-.38.36-.76.71-1.15,1.05Z"/>
              <path class="cls-8" d="m231.43,217.41c-.54.59-1.12,1.15-1.73,1.67.58-.54,1.16-1.1,1.73-1.67Z"/>
            </g>
            <g>
              <g>
                <path class="cls-4" d="m651.08,130.84c-10.1-10.11-22.26-15.16-36.46-15.16s-26.1,4.87-36.13,14.61c-10.03,9.74-15.26,21.49-15.7,35.25v96.64h27.67v-48.98c7.62,3.95,15.67,5.93,24.16,5.93,14.2,0,26.36-5.05,36.46-15.16,10.1-10.1,15.16-22.32,15.16-36.67s-5.06-26.36-15.16-36.46Zm-19.22,53.92c-4.76,4.76-10.5,7.13-17.24,7.13s-12.7-2.37-17.46-7.13c-4.76-4.76-7.14-10.58-7.14-17.46s2.38-12.49,7.14-17.25c4.76-4.75,10.58-7.13,17.46-7.13s12.48,2.38,17.24,7.13c4.76,4.76,7.14,10.51,7.14,17.25s-2.38,12.7-7.14,17.46Z"/>
                <path class="cls-4" d="m718.73,117c-7.62,0-14.65,2.93-21.09,8.79-7.76,7.02-11.64,16.25-11.64,27.67v64.79h27.23v-67.21c.74-5.56,3.66-8.34,8.79-8.34h16.03v-25.7h-19.32Z"/>
                <path class="cls-4" d="m756.06,116.78v101.47h27.89v-101.47h-27.89Z"/>
                <path class="cls-4" d="m895.41,130.95c-10.18-10.18-22.51-15.27-37.01-15.27s-26.43,5.02-36.67,15.05c-10.25,10.03-15.45,22.22-15.6,36.57v50.95h27.68l.22-53.15c.58-6.29,3.21-11.53,7.9-15.7,4.69-4.18,10.18-6.26,16.47-6.26,6.89,0,12.74,2.41,17.58,7.24,4.83,4.84,7.24,10.69,7.24,17.57l.22,50.3h27.24v-50.3c0-14.49-5.09-26.82-15.27-37Z"/>
                <path class="cls-4" d="m973.93,116.78v-36.68h-27.68v36.68l-18.01-.22v27.67h18.01l-.22,74.24h27.9v-74.24h18.45v-27.67l-18.45.22Z"/>
              </g>
              <g>
                <path class="cls-8" d="m352.61,131.06c-10.1-10.11-22.25-15.16-36.45-15.16-8.5,0-16.48,1.98-23.94,5.93v-50.29h-27.9v97.29c0,13.77,5.2,25.63,15.6,35.58,10.39,9.96,22.47,14.94,36.24,14.94s26.35-5.05,36.45-15.16c10.11-10.1,15.16-22.32,15.16-36.67s-5.05-26.36-15.16-36.46Zm-19.21,53.92c-4.76,4.76-10.51,7.13-17.24,7.13s-12.71-2.37-17.47-7.13c-4.76-4.76-7.13-10.58-7.13-17.46s2.37-12.49,7.13-17.25c4.76-4.75,10.58-7.13,17.47-7.13s12.48,2.38,17.24,7.13c4.75,4.76,7.13,10.51,7.13,17.25s-2.38,12.7-7.13,17.46Z"/>
                <path class="cls-8" d="m420.26,117c-7.62,0-14.65,2.93-21.09,8.79-7.76,7.02-11.64,16.25-11.64,27.67v64.79h27.24v-67.21c.73-5.56,3.65-8.34,8.78-8.34h16.03v-25.7h-19.32Z"/>
                <path class="cls-8" d="m524.36,185.3c-4.83,4.69-10.76,7.03-17.79,7.03s-12.49-2.38-17.24-7.13-7.14-10.51-7.14-17.25,2.38-12.7,7.14-17.46,10.5-7.13,17.24-7.13,12.37,2.49,17.35,7.46c8.34-7.76,14.71-14.27,19.11-19.54-10.11-10.11-22.26-15.16-36.46-15.16s-26.36,5.05-36.46,15.16c-10.1,10.1-15.16,22.33-15.16,36.67s5.06,26.36,15.16,36.46c10.1,10.11,22.25,15.16,36.46,15.16s26.13-4.98,36.24-14.94c.14-.58-6.01-7.03-18.45-19.33Z"/>
              </g>
              <g>
                <path class="cls-8" d="m770.89,104.69c-4.82,0-8.42-1.69-11.3-4.95-1.64-1.85-2.71-3.99-3.19-6.42-.26-1.33-.33-2.68-.24-4.04.1-1.57.45-3.09,1.05-4.55.08-.19.14-.19.29-.08,2.82,2,5.84,3.64,9.1,4.8,2.04.72,4.14,1.23,6.29,1.51,1.96.25,3.93.32,5.9.19,1.95-.12,3.87-.39,5.78-.82.18-.04.21.03.21.19-.05,4.02-1.53,7.42-4.42,10.2-1.89,1.82-4.1,3.06-6.68,3.62-1.07.23-2.15.34-2.78.33Z"/>
                <path class="cls-8" d="m778.03,85.24c-5.43,0-9.78-1.17-13.87-3.35-1.11-.59-2.19-1.25-3.24-1.94-.17-.12-.16-.16-.01-.29,1.15-1.04,2.46-1.83,3.83-2.53.44-.22.75-.24,1.19,0,2.21,1.23,4.57,2.1,7.05,2.59,1.96.39,3.94.53,5.94.41.43-.03.85-.06,1.28-.09.13-.01.23.02.32.12,1.22,1.22,2.23,2.59,2.96,4.15.12.25.12.25-.15.3-2.01.41-4.05.62-5.32.63Z"/>
                <path class="cls-8" d="m769,75.12c.5-.21.95-.4,1.4-.59,1.34-.57,2.7-1.08,4.09-1.53.14-.05.22-.04.31.1.76,1.29,1.56,2.56,2.48,3.75.02.02.03.05.07.12-2.91-.06-5.65-.69-8.34-1.85Z"/>
              </g>
            </g>
          </g>
          <path class="cls-5" d="m143.27,183.95c-1.04-.28-1.97-.83-2.72-1.56-.8-.79-1.39-1.8-1.67-2.92,0,0,1.27.26,2.44,1.08.98.69,1.88,1.76,1.95,3.4Z"/>
        </g>
      </g>
    </g>
  </g>
</svg>